HIERARCHY
ROOT Hips
{
	OFFSET 0.000000 97.420761 0.000000
	CHANNELS 6 Xposition Yposition Zposition Xrotation Yrotation Zrotation
	JOINT RightUpLeg
	{
		OFFSET -8.571318 0.002251 -0.000250
		CHANNELS 6 Xposition Yposition Zposition Xrotation Yrotation Zrotation
		JOINT RightLeg
		{
			OFFSET 0.000000 -44.326080 -0.000105
			CHANNELS 6 Xposition Yposition Zposition Xrotation Yrotation Zrotation
			JOINT RightFoot
			{
				OFFSET 0.000000 -43.324329 -0.000176
				CHANNELS 6 Xposition Yposition Zposition Xrotation Yrotation Zrotation
				JOINT RightToeBase
				{
					OFFSET 0.000000 -7.938133 18.050686
					CHANNELS 6 Xposition Yposition Zposition Xrotation Yrotation Zrotation
					End Site
					{
						OFFSET 0.000000 0.000000 19.719055
					}
				}
			}
		}
	}
	JOINT LeftUpLeg
	{
		OFFSET 8.571318 -0.000084 0.000009
		CHANNELS 6 Xposition Yposition Zposition Xrotation Yrotation Zrotation
		JOINT LeftLeg
		{
			OFFSET 0.000000 -44.326080 -0.000105
			CHANNELS 6 Xposition Yposition Zposition Xrotation Yrotation Zrotation
			JOINT LeftFoot
			{
				OFFSET 0.000000 -43.324329 -0.000176
				CHANNELS 6 Xposition Yposition Zposition Xrotation Yrotation Zrotation
				JOINT LeftToeBase
				{
					OFFSET 0.000000 -7.938133 18.050686
					CHANNELS 6 Xposition Yposition Zposition Xrotation Yrotation Zrotation
					End Site
					{
						OFFSET 0.000000 0.000000 19.719055
					}
				}
			}
		}
	}
	JOINT Spine
	{
		OFFSET 0.000000 10.422829 -1.158092
		CHANNELS 6 Xposition Yposition Zposition Xrotation Yrotation Zrotation
		JOINT Spine1
		{
			OFFSET 0.000000 11.587624 0.000000
			CHANNELS 3 Xrotation Yrotation Zrotation
			JOINT Spine2
			{
				OFFSET 0.000000 10.579559 -0.000443
				CHANNELS 6 Xposition Yposition Zposition Xrotation Yrotation Zrotation
				JOINT Spine3
				{
					OFFSET 0.000000 10.567749 -0.000444
					CHANNELS 6 Xposition Yposition Zposition Xrotation Yrotation Zrotation
					JOINT LeftShoulder
					{
						OFFSET 3.218383 8.290512 0.000000
						CHANNELS 6 Xposition Yposition Zposition Xrotation Yrotation Zrotation
						JOINT LeftArm
						{
							OFFSET 15.038529 0.000000 0.000000
							CHANNELS 3 Xrotation Yrotation Zrotation
							JOINT LeftForeArm
							{
								OFFSET 32.129166 0.000000 0.000000
								CHANNELS 3 Xrotation Yrotation Zrotation
								JOINT LeftHand
								{
									OFFSET 26.275406 0.000000 0.000000
									CHANNELS 3 Xrotation Yrotation Zrotation
									End Site
									{
										OFFSET 26.275406 0.000000 0.000000
									}
								}
							}
						}
					}
					JOINT RightShoulder
					{
						OFFSET -3.218383 8.290512 0.000000
						CHANNELS 6 Xposition Yposition Zposition Xrotation Yrotation Zrotation
						JOINT RightArm
						{
							OFFSET -15.038529 0.000000 0.000000
							CHANNELS 3 Xrotation Yrotation Zrotation
							JOINT RightForeArm
							{
								OFFSET -32.129166 0.000000 0.000000
								CHANNELS 3 Xrotation Yrotation Zrotation
								JOINT RightHand
								{
									OFFSET -26.275406 0.000000 0.000000
									CHANNELS 3 Xrotation Yrotation Zrotation
									End Site
									{
										OFFSET -26.275406 0.000000 0.000000
									}
								}
							}
						}
					}
					JOINT Neck
					{
						OFFSET 0.000000 14.789474 0.000000
						CHANNELS 6 Xposition Yposition Zposition Xrotation Yrotation Zrotation
						JOINT Head
						{
							OFFSET 0.000000 9.838806 0.000953
							CHANNELS 6 Xposition Yposition Zposition Xrotation Yrotation Zrotation
							End Site
							{
								OFFSET 0.000000 9.838806 0.000000
							}
						}
					}
				}
			}
		}
	}
}
MOTION
Frames: 6
Frame Time: 0.016667
0.000000 97.420761 0.000000 -0.000000 0.000000 -0.000000 -8.571318 0.002251 -0.000250 -0.000000 0.000000 -0.000000 0.000000 -44.326080 -0.000105 -0.000000 0.000000 -0.000000 0.000000 -43.324329 -0.000176 -0.000000 0.000000 -0.000000 0.000000 -7.938133 18.050686 -0.000000 0.000000 -0.000000 8.571318 -0.000084 0.000009 -0.000000 0.000000 -0.000000 0.000000 -44.326080 -0.000105 -0.000000 0.000000 -0.000000 0.000000 -43.324329 -0.000176 -0.000000 0.000000 -0.000000 0.000000 -7.938133 18.050686 -0.000000 0.000000 -0.000000 0.000000 10.422829 -1.158092 -0.000000 0.000000 -0.000000 -0.000000 0.000000 -0.000000 0.000000 10.579559 -0.000443 -0.000000 0.000000 -0.000000 0.000000 10.567749 -0.000444 -0.000000 0.000000 -0.000000 3.218383 8.290512 0.000000 -0.000000 0.000000 -0.000000 -0.000000 0.000000 -0.000000 -0.000000 0.000000 -0.000000 -0.000000 0.000000 -0.000000 -3.218383 8.290512 0.000000 -0.000000 0.000000 -0.000000 -0.000000 0.000000 -0.000000 -0.000000 0.000000 -0.000000 -0.000000 0.000000 -0.000000 0.000000 14.789474 0.000000 -0.000000 0.000000 -0.000000 0.000000 9.838806 0.000953 -0.000000 0.000000 -0.000000 
29.038599 97.202301 -30.221481 8.662915 1.066863 0.260711 -8.571317 0.002266 -0.000248 -9.546620 -6.172204 -6.691642 -0.000002 -44.326088 -0.000105 3.879550 -1.665678 0.501557 -0.000001 -43.324329 -0.000167 -2.874076 1.056985 2.718003 0.000003 -7.938132 18.050694 -0.000000 0.000000 0.000000 8.571316 -0.000071 0.000012 -3.095326 11.562918 -2.663380 -0.000004 -44.326080 -0.000105 1.131945 -2.365438 0.363281 0.000002 -43.324333 -0.000177 -5.930386 8.484124 -1.257808 -0.000003 -7.938133 18.050690 0.000000 -0.000001 -0.000000 0.000000 10.422838 -1.158090 -1.309749 3.015372 -1.070328 -6.302481 1.379060 -0.347167 -0.000002 10.579563 -0.000443 -0.596139 1.379399 -0.345641 0.000000 10.567753 -0.000443 5.275236 1.002770 -0.363311 3.218380 8.290528 -0.000003 -2.653804 -7.697032 -7.379592 -4.170760 0.746392 -78.546014 2.957344 0.804147 3.815482 2.205045 13.253950 -6.664400 -3.218382 8.290520 -0.000003 -7.807763 -10.183465 7.319606 -6.742794 1.860422 70.525269 -2.206920 2.220553 0.710061 3.579481 -10.498094 9.385917 -0.000001 14.789496 -0.000005 22.949345 -0.605345 1.095763 0.000000 9.838804 0.000947 7.305695 -1.385278 1.855721 
29.664036 97.185684 -30.889626 8.712164 1.040628 0.214827 -8.571315 0.002252 -0.000250 -9.987419 -6.166122 -6.743537 0.000002 -44.326073 -0.000107 4.583993 -2.124915 0.263113 0.000000 -43.324333 -0.000167 -3.050657 1.441875 2.988908 -0.000000 -7.938132 18.050680 0.000000 -0.000001 -0.000000 8.571318 -0.000087 0.000009 -3.082317 11.728715 -2.675479 -0.000002 -44.326069 -0.000101 1.149858 -2.499658 0.307446 0.000005 -43.324329 -0.000178 -6.085626 8.819518 -1.224771 0.000001 -7.938131 18.050684 -0.000000 0.000001 -0.000000 0.000001 10.422826 -1.158092 -1.248073 3.095762 -1.082045 -6.389624 1.415530 -0.347128 -0.000001 10.579575 -0.000444 -0.569194 1.415566 -0.346982 -0.000001 10.567747 -0.000443 5.409889 1.029286 -0.368036 3.218378 8.290517 -0.000000 -2.694371 -7.846325 -7.408313 -4.753238 -0.124471 -80.064789 2.694639 0.426114 3.724707 2.218482 13.282157 -6.616009 -3.218386 8.290500 0.000000 -7.758408 -10.244772 7.449889 -7.626737 2.205493 72.326567 -2.833931 3.013344 1.117013 3.752318 -10.846780 9.859519 -0.000002 14.789466 -0.000002 23.510845 -0.597690 1.175452 -0.000000 9.838799 0.000956 7.648967 -1.395546 2.001620 
29.717699 97.175888 -30.970581 8.602546 0.982794 0.161206 -8.571319 0.002241 -0.000250 -10.317936 -6.071920 -6.652701 -0.000002 -44.326080 -0.000105 5.315041 -2.536696 0.014542 0.000001 -43.324326 -0.000173 -3.171741 1.847423 3.182805 0.000001 -7.938132 18.050692 -0.000000 0.000000 0.000000 8.571320 -0.000091 0.000012 -3.023758 11.701832 -2.639348 -0.000004 -44.326080 -0.000104 1.132679 -2.575195 0.243421 -0.000003 -43.324329 -0.000175 -6.130790 8.959527 -1.171672 -0.000003 -7.938132 18.050688 0.000000 0.000001 -0.000000 0.000001 10.422819 -1.158090 -1.161427 3.112940 -1.075156 -6.351143 1.422980 -0.342752 -0.000001 10.579574 -0.000443 -0.530713 1.423016 -0.342605 -0.000001 10.567719 -0.000446 5.438767 1.035213 -0.365258 3.218381 8.290495 0.000002 -2.660214 -7.852518 -7.273956 -5.335634 -1.092503 -80.104971 2.224181 -0.173629 3.413177 2.124330 12.944186 -6.348727 -3.218380 8.290494 0.000002 -7.586840 -10.080096 7.443409 -8.353734 2.629619 72.838660 -3.459202 3.979369 1.670062 3.747058 -10.781589 9.927119 0.000001 14.789481 -0.000000 23.610374 -0.586981 1.245936 0.000002 9.838820 0.000948 7.835151 -1.392197 2.134438 
29.775887 97.172310 -31.063736 8.532289 0.927281 0.109782 -8.571316 0.002240 -0.000251 -10.726296 -6.028822 -6.579620 0.000002 -44.326084 -0.000106 6.088285 -2.857393 -0.191461 0.000000 -43.324329 -0.000171 -3.284608 2.243058 3.303633 -0.000000 -7.938131 18.050690 0.046914 0.000582 -0.128773 8.571316 -0.000092 0.000010 -2.993612 11.731855 -2.606470 -0.000007 -44.326080 -0.000105 1.103492 -2.626336 0.191335 0.000009 -43.324329 -0.000181 -6.181242 9.046944 -1.123586 -0.000008 -7.938131 18.050688 -0.000000 -0.000001 0.000000 0.000000 10.422822 -1.158092 -1.091722 3.122876 -1.073122 -6.320197 1.427403 -0.340945 0.000001 10.579543 -0.000444 -0.499765 1.427437 -0.340797 -0.000001 10.567743 -0.000442 5.461989 1.038673 -0.364180 3.218382 8.290509 -0.000003 -2.610759 -7.872359 -7.143784 -5.903893 -1.956100 -80.083661 1.567621 -0.992177 2.927816 1.981242 12.505979 -6.008445 -3.218383 8.290500 -0.000003 -7.483927 -9.920686 7.432715 -8.912519 3.036106 73.323911 -4.086235 5.103392 2.373248 3.643875 -10.376155 9.635372 0.000001 14.789474 -0.000003 23.688187 -0.584030 1.329048 -0.000003 9.838784 0.000955 7.981352 -1.406449 2.288215 
29.839212 97.172066 -31.168449 8.485367 0.865918 0.058280 -8.571318 0.002253 -0.000254 -11.200267 -6.017491 -6.515813 -0.000000 -44.326073 -0.000104 6.913401 -3.130647 -0.379321 -0.000001 -43.324337 -0.000176 -3.390334 2.648816 3.385451 -0.000001 -7.938133 18.050686 0.093917 0.000625 -0.257515 8.571317 -0.000085 0.000006 -2.980514 11.804976 -2.575612 -0.000007 -44.326088 -0.000105 1.063082 -2.659659 0.143828 -0.000002 -43.324326 -0.000179 -6.235779 9.097602 -1.076003 -0.000001 -7.938132 18.050682 -0.000000 0.000000 0.000000 0.000001 10.422834 -1.158097 -1.029506 3.128673 -1.073835 -6.292580 1.430098 -0.340579 -0.000005 10.579553 -0.000442 -0.472149 1.430133 -0.340431 0.000004 10.567733 -0.000446 5.482701 1.040733 -0.364052 3.218384 8.290501 0.000003 -2.552146 -7.898683 -7.012739 -6.480198 -2.778448 -80.026594 0.777319 -1.972238 2.316764 1.811061 11.981633 -5.610656 -3.218383 8.290510 0.000001 -7.417346 -9.760353 7.419323 -9.387104 3.442711 73.803657 -4.720073 6.375950 3.205225 3.491463 -9.750929 9.122770 0.000001 14.789453 -0.000001 23.752148 -0.586393 1.421937 -0.000004 9.838803 0.000945 8.102176 -1.433002 2.458464 
